<svg width="48" height="48" viewBox="0 0 48 48" fill="none" xmlns="http://www.w3.org/2000/svg">
<path fill-rule="evenodd" clip-rule="evenodd" d="M27.951 14.157C28.365 13.44 29.283 13.194 30 13.608C30.717 14.022 30.963 14.94 30.549 15.657L20.049 33.843C19.635 34.56 18.717 34.806 18 34.392C17.283 33.978 17.037 33.06 17.451 32.343L27.951 14.157ZM34.473 31.335C33.942 30.699 34.029 29.7525 34.665 29.223L35.0325 28.9155C37.2495 27.0615 38.3565 26.1345 40.326 24C38.319 21.8235 37.248 20.9325 34.908 18.9795L34.665 18.777C34.029 18.2475 33.942 17.301 34.473 16.665C35.0025 16.029 35.886 16.0305 36.5865 16.473C39 18 40.5 19.5 42.8865 22.419C43.215 22.887 43.5 23.415 43.5 24C43.5 24.585 43.215 25.113 42.8865 25.5795C40.5 28.5 39 30 36.5865 31.5255L36.585 31.527C35.949 32.058 35.0025 31.971 34.473 31.335ZM13.335 29.223C13.971 29.7525 14.058 30.699 13.527 31.335C12.9975 31.971 12.051 32.058 11.415 31.527L11.4135 31.5255C9 30 7.5 28.5 5.1135 25.5795C4.785 25.113 4.5 24.585 4.5 24C4.5 23.415 4.785 22.887 5.1135 22.419C7.5 19.5 9 18 11.4135 16.473C12.114 16.0305 12.9975 16.029 13.527 16.665C14.058 17.301 13.971 18.2475 13.335 18.777L13.092 18.9795C10.752 20.9325 9.681 21.8235 7.674 24C9.6435 26.1345 10.7505 27.0615 12.9675 28.9155L13.335 29.223Z" fill="black"/>
</svg>
