<svg width="48" height="48" viewBox="0 0 48 48" fill="none" xmlns="http://www.w3.org/2000/svg">
<path fill-rule="evenodd" clip-rule="evenodd" d="M31.572 9.4365C29.754 9.075 27.384 9 24 9C20.616 9 18.246 9.075 16.428 9.4365C14.763 9.7605 14.0625 10.236 13.6485 10.7325C13.1685 11.3085 12.687 12.3735 12.3825 14.628C12.069 16.9245 12 19.911 12 24C12 28.0875 12.069 31.0755 12.3825 33.372C12.687 35.6265 13.1685 36.6915 13.6485 37.2675C14.0625 37.764 14.763 38.2395 16.428 38.5635C18.246 38.925 20.616 39 24 39C27.384 39 29.754 38.925 31.572 38.5635C33.237 38.2395 33.9375 37.764 34.3515 37.2675C34.8315 36.6915 35.313 35.6265 35.616 33.372C35.931 31.0755 36 28.0875 36 24C36 19.911 35.931 16.9245 35.616 14.628C35.313 12.3735 34.8315 11.3085 34.3515 10.7325C33.9375 10.236 33.237 9.7605 31.572 9.4365ZM39 24C39 7.5 37.7505 6 24 6C10.2495 6 9 7.5 9 24C9 40.5 10.2495 42 24 42C37.7505 42 39 40.5 39 24Z" fill="black"/>
<path fill-rule="evenodd" clip-rule="evenodd" d="M14.25 16.5C14.25 16.1022 14.408 15.7206 14.6893 15.4393C14.9706 15.158 15.3522 15 15.75 15H32.25C32.6478 15 33.0294 15.158 33.3107 15.4393C33.592 15.7206 33.75 16.1022 33.75 16.5C33.75 16.8978 33.592 17.2794 33.3107 17.5607C33.0294 17.842 32.6478 18 32.25 18H15.75C15.3522 18 14.9706 17.842 14.6893 17.5607C14.408 17.2794 14.25 16.8978 14.25 16.5ZM14.25 24C14.25 23.6022 14.408 23.2206 14.6893 22.9393C14.9706 22.658 15.3522 22.5 15.75 22.5H32.25C32.6478 22.5 33.0294 22.658 33.3107 22.9393C33.592 23.2206 33.75 23.6022 33.75 24C33.75 24.3978 33.592 24.7794 33.3107 25.0607C33.0294 25.342 32.6478 25.5 32.25 25.5H15.75C15.3522 25.5 14.9706 25.342 14.6893 25.0607C14.408 24.7794 14.25 24.3978 14.25 24ZM14.25 31.5C14.25 31.1022 14.408 30.7206 14.6893 30.4393C14.9706 30.158 15.3522 30 15.75 30H27.75C28.1478 30 28.5294 30.158 28.8107 30.4393C29.092 30.7206 29.25 31.1022 29.25 31.5C29.25 31.8978 29.092 32.2794 28.8107 32.5607C28.5294 32.842 28.1478 33 27.75 33H15.75C15.3522 33 14.9706 32.842 14.6893 32.5607C14.408 32.2794 14.25 31.8978 14.25 31.5Z" fill="black"/>
</svg>
