<svg width="48" height="48" viewBox="0 0 48 48" fill="none" xmlns="http://www.w3.org/2000/svg">
<path fill-rule="evenodd" clip-rule="evenodd" d="M25.0395 24.996C25.6035 24.4335 26.541 24.3765 27.105 24.939L27.2295 25.065C27.7665 25.6005 27.8085 26.46 27.2775 27.0015C27.2385 27.0405 27.201 27.0795 27.162 27.1185C25.8615 28.4175 24.6555 29.2755 23.391 29.601C23.274 29.631 23.154 29.6565 23.0355 29.6775C21.8325 29.8905 20.5665 29.6235 19.1115 28.8045C17.751 28.038 16.227 26.79 14.433 24.996C8.4945 19.0575 8.5245 16.0575 12.312 12.2685C16.101 8.481 19.101 8.451 25.0395 14.3895C25.698 15.048 26.2815 15.669 26.796 16.26C26.949 16.4355 26.7825 16.71 26.553 16.68C25.7145 16.569 24.927 16.6275 24.1815 16.821C23.733 16.938 23.2455 16.839 22.9185 16.512C19.9815 13.575 18.366 12.774 17.4735 12.6555C16.9245 12.582 16.1205 12.7035 14.433 14.3895C12.747 16.077 12.6255 16.881 12.699 17.43C12.8175 18.3225 13.6185 19.938 16.5555 22.875C17.2035 23.5245 17.7885 24.069 18.315 24.525C18.384 24.585 18.4515 24.6435 18.519 24.7005C19.7805 25.7685 20.694 26.31 21.3555 26.5605C21.6045 26.6535 21.8175 26.7075 21.999 26.7315C22.5495 26.805 23.3535 26.6835 25.0395 24.996ZM29.6445 23.3475C28.2765 22.1625 27.3 21.576 26.604 21.312C26.355 21.2175 26.142 21.165 25.959 21.141C25.4085 21.0675 24.606 21.189 22.9185 22.875C22.356 23.439 21.417 23.496 20.8545 22.932L20.73 22.8075C20.193 22.2705 20.1495 21.411 20.682 20.871C20.7195 20.832 20.7585 20.793 20.7975 20.754C22.0965 19.455 23.304 18.597 24.5685 18.2715C25.878 17.934 27.2475 18.1665 28.848 19.068C30.207 19.833 31.7325 21.0825 33.525 22.875C39.465 28.815 39.435 31.815 35.646 35.604C31.8585 39.3915 28.8585 39.4215 22.9185 33.4815C22.2615 32.8245 21.6765 32.2035 21.162 31.6125C21.009 31.437 21.1755 31.161 21.4065 31.1925C22.245 31.3035 23.031 31.245 23.778 31.0515C24.2265 30.9345 24.7125 31.0335 25.0395 31.3605C27.9765 34.2975 29.592 35.0985 30.4845 35.217C31.035 35.2905 31.839 35.169 33.525 33.4815C35.2125 31.7955 35.334 30.9915 35.2605 30.441C35.142 29.5485 34.341 27.933 31.404 24.996C30.7545 24.348 30.171 23.8035 29.6445 23.3475Z" fill="black"/>
</svg>
