<svg width="48" height="48" viewBox="0 0 48 48" fill="none" xmlns="http://www.w3.org/2000/svg">
<path fill-rule="evenodd" clip-rule="evenodd" d="M28.2555 41.949C40.7685 41.5875 42 38.9535 42 24C42 7.5 40.5 6 24 6C7.5 6 6 7.5 6 24C6 38.9925 7.239 41.601 19.842 41.952C19.9515 41.8155 19.992 41.6445 19.992 41.4705C19.992 41.0955 19.977 37.2465 19.9695 35.922C15.414 36.8805 14.4525 33.7935 14.4525 33.7935C13.707 31.9605 12.633 31.4715 12.633 31.4715C11.1465 30.4875 12.7455 30.507 12.7455 30.507C14.3895 30.6195 15.255 32.1435 15.255 32.1435C16.716 34.569 19.089 33.8685 20.022 33.462C20.1705 32.4375 20.5935 31.737 21.0615 31.341C17.424 30.9405 13.6005 29.5785 13.6005 23.496C13.6005 21.7635 14.2395 20.3475 15.2865 19.2375C15.117 18.8355 14.556 17.2215 15.447 15.0375C15.447 15.0375 16.8225 14.61 19.9515 16.6635C21.258 16.311 22.659 16.1355 24.0525 16.1295C25.443 16.1355 26.844 16.311 28.1535 16.6635C31.281 14.61 32.6535 15.0375 32.6535 15.0375C33.5475 17.2215 32.985 18.8355 32.8155 19.2375C33.8655 20.3475 34.5 21.7635 34.5 23.496C34.5 29.5935 30.6705 30.936 27.021 31.3275C27.609 31.818 28.1325 32.787 28.1325 34.2675C28.1325 35.6865 28.1235 38.196 28.1175 39.8595C28.1145 40.683 28.113 41.298 28.113 41.4705C28.113 41.634 28.1565 41.8065 28.2555 41.949Z" fill="black"/>
</svg>
