<svg width="48" height="48" viewBox="0 0 48 48" fill="none" xmlns="http://www.w3.org/2000/svg">
<path fill-rule="evenodd" clip-rule="evenodd" d="M11.2274 17.4103C11.8638 16.88 12.8096 16.966 13.3399 17.6024C15.4054 20.07 20.4822 25.8007 23.0626 27.7643C25.6864 25.7677 30.6901 20.1143 32.7853 17.6024C33.3157 16.966 34.2614 16.88 34.8979 17.4103C35.5343 17.9407 35.6198 18.8871 35.0894 19.5235C32.792 22.2829 27.5999 28.223 24.6429 30.3247C24.176 30.652 23.6479 30.9377 23.0626 30.9377C22.4774 30.9377 21.9493 30.652 21.4824 30.3247C18.5849 28.2654 13.2903 22.2258 11.0369 19.5248L11.0353 19.5229C10.505 18.8865 10.5909 17.9407 11.2274 17.4103Z" fill="black"/>
</svg>